<svg width="20" height="16" viewBox="0 0 20 16" fill="none" xmlns="http://www.w3.org/2000/svg">
<path d="M13.4875 14.14L11.47 12.1213C10.6898 12.4002 9.84643 12.4519 9.03802 12.2702C8.22962 12.0886 7.48941 11.6811 6.90352 11.0952C6.31764 10.5093 5.91018 9.76913 5.72854 8.96072C5.5469 8.15232 5.59856 7.30895 5.8775 6.52875L3.3025 3.95375C1.1725 5.8475 0 8 0 8C0 8 3.75 14.875 10 14.875C11.2005 14.8708 12.3874 14.6207 13.4875 14.14ZM6.5125 1.86C7.61257 1.37928 8.79949 1.12913 10 1.125C16.25 1.125 20 8 20 8C20 8 18.8263 10.1512 16.6987 12.0475L14.1213 9.47C14.4002 8.6898 14.4519 7.84643 14.2702 7.03802C14.0886 6.22962 13.6811 5.48941 13.0952 4.90352C12.5093 4.31764 11.7691 3.91018 10.9607 3.72854C10.1523 3.5469 9.30895 3.59856 8.52875 3.8775L6.5125 1.86Z" fill="white" style="fill:white;fill-opacity:1;"/>
<path d="M6.90637 7.5575C6.83761 8.03788 6.88167 8.52768 7.03507 8.98808C7.18847 9.44849 7.44698 9.86683 7.79013 10.21C8.13328 10.5531 8.55163 10.8116 9.01203 10.965C9.47243 11.1184 9.96223 11.1625 10.4426 11.0937L6.90637 7.5575ZM13.0939 8.4425L9.55762 4.905C10.038 4.83624 10.5278 4.8803 10.9882 5.0337C11.4486 5.1871 11.867 5.44561 12.2101 5.78876C12.5533 6.13191 12.8118 6.55026 12.9652 7.01066C13.1186 7.47106 13.1626 7.96086 13.0939 8.44125V8.4425ZM17.0576 15.9425L2.05762 0.942495L2.94262 0.0574951L17.9426 15.0575L17.0576 15.9425Z" fill="white" style="fill:white;fill-opacity:1;"/>
</svg>
