<svg width="36" height="31" viewBox="0 0 36 31" fill="none" xmlns="http://www.w3.org/2000/svg">
<path d="M20.5714 0C16.4795 0 12.5552 1.62551 9.66178 4.51892C6.76836 7.41234 5.14286 11.3367 5.14286 15.4286H0L6.85714 22.2857L13.7143 15.4286H8.57143C8.57143 8.81143 13.9543 3.42857 20.5714 3.42857C27.1886 3.42857 32.5714 8.81143 32.5714 15.4286C32.5714 22.0457 27.1886 27.4286 20.5714 27.4286C17.3143 27.4286 14.3657 26.1257 12.2057 24.0171L9.77143 26.4343C12.6514 29.2689 16.5305 30.8575 20.5714 30.8571C24.6633 30.8571 28.5877 29.2316 31.4811 26.3382C34.3745 23.4448 36 19.5205 36 15.4286C36 11.3367 34.3745 7.41234 31.4811 4.51892C28.5877 1.62551 24.6633 6.09742e-08 20.5714 0ZM24 13.7143V12C24 10.1143 22.4571 8.57143 20.5714 8.57143C18.6857 8.57143 17.1429 10.1143 17.1429 12V13.7143C16.2 13.7143 15.4286 14.4857 15.4286 15.4286V20.5714C15.4286 21.5143 16.2 22.2857 17.1429 22.2857H24C24.9429 22.2857 25.7143 21.5143 25.7143 20.5714V15.4286C25.7143 14.4857 24.9429 13.7143 24 13.7143ZM22.2857 13.7143H18.8571V12C18.8571 11.0571 19.6286 10.2857 20.5714 10.2857C21.5143 10.2857 22.2857 11.0571 22.2857 12V13.7143Z" fill="#CCCCCC"/>
</svg>
